<?xml version="1.0" encoding="UTF-8"?>
<svg width="22px" height="21px" viewBox="0 0 22 21" version="1.1" xmlns="http://www.w3.org/2000/svg" xmlns:xlink="http://www.w3.org/1999/xlink">
    <title>tools</title>
    <g id="Page-1" stroke="none" stroke-width="1" fill="none" fill-rule="evenodd">
        <g id="fill-copy" transform="translate(-10, -35)" fill="#000000">
            <g id="tools" transform="translate(10, 35)">
                <path d="M10,5 C10,7.76142375 7.76142375,10 5,10 C2.23857625,10 0,7.76142375 0,5 C0,2.23857625 2.23857625,0 5,0 C7.76142375,0 10,2.23857625 10,5 Z M2,5 C2,6.65685425 3.34314575,8 5,8 C6.65685425,8 8,6.65685425 8,5 C8,3.34314575 6.65685425,2 5,2 C3.34314575,2 2,3.34314575 2,5 Z" id="Oval" fill-rule="nonzero"></path>
                <path d="M8.3619715,11.3269804 C8.92645778,11.6146006 9.38539945,12.0735422 9.67301957,12.6380285 C10,13.2797637 10,14.1198425 10,15.8 L10,16.2 C10,17.8801575 10,18.7202363 9.67301957,19.3619715 C9.38539945,19.9264578 8.92645778,20.3853994 8.3619715,20.6730196 C7.72023628,21 6.88015752,21 5.2,21 L4.8,21 C3.11984248,21 2.27976372,21 1.6380285,20.6730196 C1.07354222,20.3853994 0.614600552,19.9264578 0.326980427,19.3619715 C0,18.7202363 0,17.8801575 0,16.2 L0,15.8 C0,14.1198425 0,13.2797637 0.326980427,12.6380285 C0.614600552,12.0735422 1.07354222,11.6146006 1.6380285,11.3269804 C2.27976372,11 3.11984248,11 4.8,11 L5.2,11 C6.88015752,11 7.72023628,11 8.3619715,11.3269804 Z M4.8,13 C3.70913617,13 3.34051728,13.0057938 2.99246966,13.0342304 C2.82806098,13.0476631 2.70877474,13.0649623 2.62499863,13.0846913 C2.57898385,13.0955276 2.55712358,13.1033306 2.5460095,13.1089935 C2.35784741,13.2048669 2.20486685,13.3578474 2.10899348,13.5460095 C2.10333057,13.5571236 2.0955276,13.5789838 2.08469128,13.6249986 C2.06496229,13.7087747 2.04766309,13.828061 2.03423037,13.9924697 C2.00579376,14.3405173 2,14.7091362 2,15.8 L2,16.2 C2,17.2908638 2.00579376,17.6594827 2.03423037,18.0075303 C2.04766309,18.171939 2.06496229,18.2912253 2.08469128,18.3750014 C2.0955276,18.4210162 2.10333057,18.4428764 2.10899348,18.4539905 C2.20486685,18.6421526 2.35784741,18.7951331 2.5460095,18.8910065 C2.55712358,18.8966694 2.57898385,18.9044724 2.62499863,18.9153087 C2.70877474,18.9350377 2.82806098,18.9523369 2.99246966,18.9657696 C3.34051728,18.9942062 3.70913617,19 4.8,19 L5.2,19 C6.29086383,19 6.65948272,18.9942062 7.00753034,18.9657696 C7.17193902,18.9523369 7.29122526,18.9350377 7.37500137,18.9153087 C7.42101615,18.9044724 7.44287642,18.8966694 7.4539905,18.8910065 C7.64215259,18.7951331 7.79513315,18.6421526 7.89100652,18.4539905 C7.89666943,18.4428764 7.9044724,18.4210162 7.91530872,18.3750014 C7.93503771,18.2912253 7.95233691,18.171939 7.96576963,18.0075303 C7.99420624,17.6594827 8,17.2908638 8,16.2 L8,15.8 C8,14.7091362 7.99420624,14.3405173 7.96576963,13.9924697 C7.95233691,13.828061 7.93503771,13.7087747 7.91530872,13.6249986 C7.9044724,13.5789838 7.89666943,13.5571236 7.89100652,13.5460095 C7.79513315,13.3578474 7.64215259,13.2048669 7.4539905,13.1089935 C7.44287642,13.1033306 7.42101615,13.0955276 7.37500137,13.0846913 C7.29122526,13.0649623 7.17193902,13.0476631 7.00753034,13.0342304 C6.65948272,13.0057938 6.29086383,13 5.2,13 L4.8,13 Z" id="Rectangle" fill-rule="nonzero"></path>
                <path d="M16.6155795,10.7787705 C16.9184461,10.9171512 17.1022471,11.2541197 17.4698491,11.9280566 L21.0147076,18.4269639 C21.3695814,19.0775658 21.5470183,19.4028668 21.508062,19.721396 C21.4740673,19.9993557 21.3250827,20.2503267 21.0973415,20.413272 C20.8363604,20.6 20.4658141,20.6 19.7247214,20.6 L12.6752786,20.6 C11.9341859,20.6 11.5636396,20.6 11.3026585,20.413272 C11.0749173,20.2503267 10.9259327,19.9993557 10.891938,19.721396 C10.8529817,19.4028668 11.0304186,19.0775658 11.3852924,18.4269639 L14.9301509,11.9280566 C15.2977529,11.2541197 15.4815539,10.9171512 15.7844205,10.7787705 C16.0483513,10.6581796 16.3516487,10.6581796 16.6155795,10.7787705 Z M13.5690844,18.6 L18.8309156,18.6 L16.2,13.7766547 L13.5690844,18.6 Z" id="Path" fill-rule="nonzero"></path>
            </g>
        </g>
    </g>
</svg>
